G04 #@! TF.GenerationSoftware,KiCad,Pcbnew,(5.1.5)-3*
G04 #@! TF.CreationDate,2020-04-08T18:39:47+02:00*
G04 #@! TF.ProjectId,raceMini1,72616365-4d69-46e6-9931-2e6b69636164,rev?*
G04 #@! TF.SameCoordinates,Original*
G04 #@! TF.FileFunction,Copper,L2,Bot*
G04 #@! TF.FilePolarity,Positive*
%FSLAX46Y46*%
G04 Gerber Fmt 4.6, Leading zero omitted, Abs format (unit mm)*
G04 Created by KiCad (PCBNEW (5.1.5)-3) date 2020-04-08 18:39:47*
%MOMM*%
%LPD*%
G04 APERTURE LIST*
%ADD10C,0.300000*%
%ADD11O,1.700000X1.700000*%
%ADD12R,1.700000X1.700000*%
%ADD13O,2.000000X1.700000*%
%ADD14C,2.000000*%
%ADD15R,2.000000X2.000000*%
%ADD16C,2.500000*%
%ADD17C,4.000000*%
%ADD18C,1.600000*%
%ADD19C,1.200000*%
%ADD20C,2.000000*%
%ADD21C,0.800000*%
%ADD22C,0.254000*%
G04 APERTURE END LIST*
D10*
X156082857Y-96734285D02*
X153797142Y-96734285D01*
X154940000Y-97877142D02*
X154940000Y-95591428D01*
D11*
X132080000Y-90170000D03*
X129540000Y-90170000D03*
X127000000Y-90170000D03*
D12*
X124460000Y-90170000D03*
D13*
X95250000Y-132080000D03*
X95250000Y-129540000D03*
X95250000Y-127000000D03*
X95250000Y-124460000D03*
X95250000Y-121920000D03*
X95250000Y-119380000D03*
X95250000Y-116840000D03*
X95250000Y-114300000D03*
X95250000Y-111760000D03*
X95250000Y-109220000D03*
X95250000Y-106680000D03*
X95250000Y-104140000D03*
X95250000Y-101600000D03*
X95250000Y-99060000D03*
X95250000Y-96520000D03*
X120650000Y-132080000D03*
X120650000Y-129540000D03*
X120650000Y-127000000D03*
X120650000Y-124460000D03*
X120650000Y-121920000D03*
X120650000Y-119380000D03*
X120650000Y-116840000D03*
X120650000Y-114300000D03*
X120650000Y-111760000D03*
X120650000Y-109220000D03*
X120650000Y-106680000D03*
X120650000Y-104140000D03*
X120650000Y-101600000D03*
X120650000Y-99060000D03*
X120650000Y-96520000D03*
D14*
X130810000Y-138430000D03*
X130810000Y-97790000D03*
X148590000Y-97790000D03*
D15*
X148590000Y-138430000D03*
D11*
X125730000Y-114300000D03*
X125730000Y-116840000D03*
X125730000Y-119380000D03*
D12*
X125730000Y-121920000D03*
D11*
X125730000Y-109220000D03*
X125730000Y-106680000D03*
D12*
X125730000Y-104140000D03*
D16*
X157480000Y-101640000D03*
X157480000Y-106640000D03*
D11*
X104140000Y-87630000D03*
X106680000Y-87630000D03*
X109220000Y-87630000D03*
X111760000Y-87630000D03*
D12*
X114300000Y-87630000D03*
D17*
X96520000Y-139700000D03*
X119380000Y-139700000D03*
X153670000Y-133350000D03*
D18*
X92710000Y-129540000D02*
X93980000Y-129540000D01*
X93980000Y-129540000D02*
X95250000Y-129540000D01*
X134620000Y-109220000D02*
X146050000Y-97790000D01*
X92710000Y-133350000D02*
X96520000Y-136699999D01*
X146050000Y-97790000D02*
X148590000Y-97790000D01*
X124920001Y-136699999D02*
X134620000Y-127000000D01*
X134620000Y-127000000D02*
X134620000Y-109220000D01*
X92710000Y-129540000D02*
X92710000Y-133350000D01*
X96520000Y-136699999D02*
X124920001Y-136699999D01*
X95250000Y-129540000D02*
X109220000Y-129540000D01*
X120650000Y-129540000D02*
X109220000Y-129540000D01*
X129540000Y-88900000D02*
X129540000Y-90170000D01*
X119380000Y-87630000D02*
X127000000Y-87630000D01*
X109220000Y-129540000D02*
X109220000Y-97790000D01*
X127000000Y-87630000D02*
X129540000Y-88900000D01*
X109220000Y-97790000D02*
X119380000Y-87630000D01*
X92710000Y-95250000D02*
X92710000Y-129540000D01*
X104140000Y-87630000D02*
X100330000Y-87630000D01*
X100330000Y-87630000D02*
X92710000Y-95250000D01*
X129540000Y-91440000D02*
X129540000Y-90170000D01*
X125730000Y-104140000D02*
X125730000Y-95250000D01*
X125730000Y-95250000D02*
X129540000Y-91440000D01*
X125730000Y-127060000D02*
X125730000Y-121920000D01*
X120650000Y-129540000D02*
X123250000Y-129540000D01*
X123250000Y-129540000D02*
X125730000Y-127060000D01*
D19*
X97450000Y-109220000D02*
X95250000Y-109220000D01*
X101600000Y-105410000D02*
X97450000Y-109220000D01*
X106680000Y-91440000D02*
X101600000Y-96520000D01*
X101600000Y-96520000D02*
X101600000Y-105410000D01*
X106680000Y-91440000D02*
X106680000Y-87630000D01*
X97450000Y-111760000D02*
X95250000Y-111760000D01*
X109220000Y-91440000D02*
X104140000Y-96520000D01*
X104140000Y-105410000D02*
X97450000Y-111760000D01*
X104140000Y-96520000D02*
X104140000Y-105410000D01*
X109220000Y-91440000D02*
X109220000Y-87630000D01*
X97450000Y-114300000D02*
X95250000Y-114300000D01*
X106680000Y-105410000D02*
X97450000Y-114300000D01*
X111760000Y-91440000D02*
X106680000Y-96520000D01*
X106680000Y-96520000D02*
X106680000Y-105410000D01*
X111760000Y-91440000D02*
X111760000Y-87630000D01*
D18*
X125730000Y-106680000D02*
X129540000Y-106680000D01*
X129540000Y-95250000D02*
X128270000Y-96520000D01*
X129540000Y-100330000D02*
X129540000Y-102870000D01*
X116840000Y-85090000D02*
X125730000Y-85090000D01*
X128270000Y-99060000D02*
X129540000Y-100330000D01*
X132080000Y-87630000D02*
X132080000Y-95250000D01*
X114300000Y-87630000D02*
X116840000Y-85090000D01*
X128270000Y-96520000D02*
X128270000Y-99060000D01*
X125730000Y-85090000D02*
X132080000Y-87630000D01*
X129540000Y-102870000D02*
X129540000Y-106680000D01*
X132080000Y-95250000D02*
X129540000Y-95250000D01*
X129540000Y-111760000D02*
X129540000Y-106680000D01*
X127000000Y-114300000D02*
X129540000Y-111760000D01*
X125730000Y-114300000D02*
X127000000Y-114300000D01*
D20*
X130810000Y-135890000D02*
X130810000Y-138430000D01*
X138430000Y-110490000D02*
X138430000Y-128270000D01*
X138430000Y-128270000D02*
X130810000Y-135890000D01*
X147320000Y-101600000D02*
X138430000Y-110490000D01*
X157480000Y-101640000D02*
X152400000Y-101600000D01*
X152400000Y-101600000D02*
X147320000Y-101600000D01*
D18*
X140970000Y-97790000D02*
X138430000Y-97790000D01*
X144780000Y-93980000D02*
X140970000Y-97790000D01*
X148590000Y-93980000D02*
X144780000Y-93980000D01*
X152400000Y-101600000D02*
X152400000Y-95250000D01*
X152400000Y-95250000D02*
X148590000Y-93980000D01*
D20*
X151130000Y-106680000D02*
X157480000Y-106640000D01*
X148590000Y-138430000D02*
X148590000Y-109220000D01*
X148590000Y-109220000D02*
X151130000Y-106680000D01*
D18*
X120650000Y-109220000D02*
X125730000Y-109220000D01*
X120650000Y-116840000D02*
X125730000Y-116840000D01*
X120650000Y-119380000D02*
X125730000Y-119380000D01*
X130810000Y-97790000D02*
X133350000Y-97790000D01*
X135890000Y-102870000D02*
X135890000Y-97790000D01*
X132080000Y-106680000D02*
X135890000Y-102870000D01*
X115570000Y-132080000D02*
X118110000Y-134620000D01*
X95250000Y-132080000D02*
X115570000Y-132080000D01*
X118110000Y-134620000D02*
X121920000Y-134620000D01*
X121920000Y-134620000D02*
X132080000Y-124460000D01*
X132080000Y-124460000D02*
X132080000Y-106680000D01*
D21*
X135890000Y-97790000D02*
X133350000Y-97790000D01*
D19*
X120423691Y-99060000D02*
X120650000Y-99060000D01*
X118110000Y-97790000D02*
X119380000Y-99060000D01*
X119380000Y-99060000D02*
X120423691Y-99060000D01*
X127000000Y-91440000D02*
X125730000Y-92710000D01*
X127000000Y-90170000D02*
X127000000Y-91440000D01*
X125730000Y-92710000D02*
X120650000Y-92710000D01*
X120650000Y-92710000D02*
X118110000Y-95250000D01*
X118110000Y-95250000D02*
X118110000Y-97790000D01*
X115570000Y-106680000D02*
X120650000Y-106680000D01*
X113030000Y-104140000D02*
X115570000Y-106680000D01*
X113030000Y-97790000D02*
X113030000Y-104140000D01*
X124460000Y-90170000D02*
X120650000Y-90170000D01*
X120650000Y-90170000D02*
X113030000Y-97790000D01*
D22*
G36*
X102655000Y-87757002D02*
G01*
X102819185Y-87757002D01*
X102698519Y-87986891D01*
X102795843Y-88261252D01*
X102944822Y-88511355D01*
X103139731Y-88727588D01*
X103373080Y-88901641D01*
X103635901Y-89026825D01*
X103783110Y-89071476D01*
X104013000Y-88950155D01*
X104013000Y-87757000D01*
X104267000Y-87757000D01*
X104267000Y-88950155D01*
X104496890Y-89071476D01*
X104644099Y-89026825D01*
X104906920Y-88901641D01*
X105140269Y-88727588D01*
X105335178Y-88511355D01*
X105352656Y-88482014D01*
X105353001Y-88482530D01*
X105353000Y-90890339D01*
X100707765Y-95535575D01*
X100657130Y-95577130D01*
X100582933Y-95667540D01*
X100491302Y-95779192D01*
X100460304Y-95837186D01*
X100368081Y-96009723D01*
X100292201Y-96259864D01*
X100273000Y-96454817D01*
X100273000Y-96454826D01*
X100266581Y-96520000D01*
X100273000Y-96585174D01*
X100273001Y-104826854D01*
X96933237Y-107893000D01*
X96407795Y-107893000D01*
X96520503Y-107800503D01*
X96717572Y-107560373D01*
X96864007Y-107286412D01*
X96954182Y-106989146D01*
X96984630Y-106680000D01*
X96954182Y-106370854D01*
X96864007Y-106073588D01*
X96717572Y-105799627D01*
X96520503Y-105559497D01*
X96338340Y-105410000D01*
X96520503Y-105260503D01*
X96717572Y-105020373D01*
X96864007Y-104746412D01*
X96954182Y-104449146D01*
X96984630Y-104140000D01*
X96954182Y-103830854D01*
X96864007Y-103533588D01*
X96717572Y-103259627D01*
X96520503Y-103019497D01*
X96338340Y-102870000D01*
X96520503Y-102720503D01*
X96717572Y-102480373D01*
X96864007Y-102206412D01*
X96954182Y-101909146D01*
X96984630Y-101600000D01*
X96954182Y-101290854D01*
X96864007Y-100993588D01*
X96717572Y-100719627D01*
X96520503Y-100479497D01*
X96338340Y-100330000D01*
X96520503Y-100180503D01*
X96717572Y-99940373D01*
X96864007Y-99666412D01*
X96954182Y-99369146D01*
X96984630Y-99060000D01*
X96954182Y-98750854D01*
X96864007Y-98453588D01*
X96717572Y-98179627D01*
X96520503Y-97939497D01*
X96338340Y-97790000D01*
X96520503Y-97640503D01*
X96717572Y-97400373D01*
X96864007Y-97126412D01*
X96954182Y-96829146D01*
X96984630Y-96520000D01*
X96954182Y-96210854D01*
X96864007Y-95913588D01*
X96717572Y-95639627D01*
X96520503Y-95399497D01*
X96280373Y-95202428D01*
X96006412Y-95055993D01*
X95709146Y-94965818D01*
X95477469Y-94943000D01*
X95022531Y-94943000D01*
X94790854Y-94965818D01*
X94493588Y-95055993D01*
X94219627Y-95202428D01*
X93979497Y-95399497D01*
X93782428Y-95639627D01*
X93635993Y-95913588D01*
X93545818Y-96210854D01*
X93515370Y-96520000D01*
X93545818Y-96829146D01*
X93635993Y-97126412D01*
X93782428Y-97400373D01*
X93979497Y-97640503D01*
X94161660Y-97790000D01*
X93979497Y-97939497D01*
X93782428Y-98179627D01*
X93635993Y-98453588D01*
X93545818Y-98750854D01*
X93515370Y-99060000D01*
X93545818Y-99369146D01*
X93635993Y-99666412D01*
X93782428Y-99940373D01*
X93979497Y-100180503D01*
X94161660Y-100330000D01*
X93979497Y-100479497D01*
X93782428Y-100719627D01*
X93635993Y-100993588D01*
X93545818Y-101290854D01*
X93515370Y-101600000D01*
X93545818Y-101909146D01*
X93635993Y-102206412D01*
X93782428Y-102480373D01*
X93979497Y-102720503D01*
X94161660Y-102870000D01*
X93979497Y-103019497D01*
X93782428Y-103259627D01*
X93635993Y-103533588D01*
X93545818Y-103830854D01*
X93515370Y-104140000D01*
X93545818Y-104449146D01*
X93635993Y-104746412D01*
X93782428Y-105020373D01*
X93979497Y-105260503D01*
X94161660Y-105410000D01*
X93979497Y-105559497D01*
X93782428Y-105799627D01*
X93635993Y-106073588D01*
X93545818Y-106370854D01*
X93515370Y-106680000D01*
X93545818Y-106989146D01*
X93635993Y-107286412D01*
X93782428Y-107560373D01*
X93979497Y-107800503D01*
X94161660Y-107950000D01*
X93979497Y-108099497D01*
X93782428Y-108339627D01*
X93635993Y-108613588D01*
X93545818Y-108910854D01*
X93515370Y-109220000D01*
X93545818Y-109529146D01*
X93635993Y-109826412D01*
X93782428Y-110100373D01*
X93979497Y-110340503D01*
X94161660Y-110490000D01*
X93979497Y-110639497D01*
X93782428Y-110879627D01*
X93635993Y-111153588D01*
X93545818Y-111450854D01*
X93515370Y-111760000D01*
X93545818Y-112069146D01*
X93635993Y-112366412D01*
X93782428Y-112640373D01*
X93979497Y-112880503D01*
X94161660Y-113030000D01*
X93979497Y-113179497D01*
X93782428Y-113419627D01*
X93635993Y-113693588D01*
X93545818Y-113990854D01*
X93515370Y-114300000D01*
X93545818Y-114609146D01*
X93635993Y-114906412D01*
X93782428Y-115180373D01*
X93979497Y-115420503D01*
X94161660Y-115570000D01*
X93979497Y-115719497D01*
X93782428Y-115959627D01*
X93635993Y-116233588D01*
X93545818Y-116530854D01*
X93515370Y-116840000D01*
X93545818Y-117149146D01*
X93635993Y-117446412D01*
X93782428Y-117720373D01*
X93979497Y-117960503D01*
X94161660Y-118110000D01*
X93979497Y-118259497D01*
X93782428Y-118499627D01*
X93635993Y-118773588D01*
X93545818Y-119070854D01*
X93515370Y-119380000D01*
X93545818Y-119689146D01*
X93635993Y-119986412D01*
X93782428Y-120260373D01*
X93979497Y-120500503D01*
X94161660Y-120650000D01*
X93979497Y-120799497D01*
X93782428Y-121039627D01*
X93635993Y-121313588D01*
X93545818Y-121610854D01*
X93515370Y-121920000D01*
X93545818Y-122229146D01*
X93635993Y-122526412D01*
X93782428Y-122800373D01*
X93979497Y-123040503D01*
X94161660Y-123190000D01*
X93979497Y-123339497D01*
X93782428Y-123579627D01*
X93635993Y-123853588D01*
X93545818Y-124150854D01*
X93515370Y-124460000D01*
X93545818Y-124769146D01*
X93635993Y-125066412D01*
X93782428Y-125340373D01*
X93979497Y-125580503D01*
X94161660Y-125730000D01*
X93979497Y-125879497D01*
X93782428Y-126119627D01*
X93635993Y-126393588D01*
X93545818Y-126690854D01*
X93515370Y-127000000D01*
X93545818Y-127309146D01*
X93635993Y-127606412D01*
X93782428Y-127880373D01*
X93979497Y-128120503D01*
X94219627Y-128317572D01*
X94246424Y-128331895D01*
X94108205Y-128433198D01*
X93911336Y-128647954D01*
X93760146Y-128896991D01*
X93660446Y-129170739D01*
X93658524Y-129183110D01*
X93779845Y-129413000D01*
X95123000Y-129413000D01*
X95123000Y-129393000D01*
X95377000Y-129393000D01*
X95377000Y-129413000D01*
X96720155Y-129413000D01*
X96841476Y-129183110D01*
X96839554Y-129170739D01*
X96739854Y-128896991D01*
X96588664Y-128647954D01*
X96391795Y-128433198D01*
X96253576Y-128331895D01*
X96280373Y-128317572D01*
X96520503Y-128120503D01*
X96717572Y-127880373D01*
X96864007Y-127606412D01*
X96954182Y-127309146D01*
X96984630Y-127000000D01*
X96954182Y-126690854D01*
X96864007Y-126393588D01*
X96717572Y-126119627D01*
X96520503Y-125879497D01*
X96338340Y-125730000D01*
X96520503Y-125580503D01*
X96717572Y-125340373D01*
X96864007Y-125066412D01*
X96954182Y-124769146D01*
X96984630Y-124460000D01*
X96954182Y-124150854D01*
X96864007Y-123853588D01*
X96717572Y-123579627D01*
X96520503Y-123339497D01*
X96338340Y-123190000D01*
X96520503Y-123040503D01*
X96717572Y-122800373D01*
X96864007Y-122526412D01*
X96954182Y-122229146D01*
X96984630Y-121920000D01*
X96954182Y-121610854D01*
X96864007Y-121313588D01*
X96717572Y-121039627D01*
X96520503Y-120799497D01*
X96338340Y-120650000D01*
X96520503Y-120500503D01*
X96717572Y-120260373D01*
X96864007Y-119986412D01*
X96954182Y-119689146D01*
X96984630Y-119380000D01*
X96954182Y-119070854D01*
X96864007Y-118773588D01*
X96717572Y-118499627D01*
X96520503Y-118259497D01*
X96338340Y-118110000D01*
X96520503Y-117960503D01*
X96717572Y-117720373D01*
X96864007Y-117446412D01*
X96954182Y-117149146D01*
X96984630Y-116840000D01*
X96954182Y-116530854D01*
X96864007Y-116233588D01*
X96717572Y-115959627D01*
X96520503Y-115719497D01*
X96407795Y-115627000D01*
X97372343Y-115627000D01*
X97424985Y-115633184D01*
X97502694Y-115627000D01*
X97515184Y-115627000D01*
X97567743Y-115621823D01*
X97685556Y-115612448D01*
X97697633Y-115609031D01*
X97710137Y-115607799D01*
X97823337Y-115573460D01*
X97937076Y-115541275D01*
X97948258Y-115535565D01*
X97960278Y-115531919D01*
X98064594Y-115476161D01*
X98169878Y-115422400D01*
X98179730Y-115414619D01*
X98190808Y-115408698D01*
X98282221Y-115333677D01*
X98323613Y-115300988D01*
X98332598Y-115292334D01*
X98392870Y-115242870D01*
X98426503Y-115201888D01*
X107562606Y-106402327D01*
X107622870Y-106352870D01*
X107697867Y-106261486D01*
X107774604Y-106171479D01*
X107780731Y-106160515D01*
X107788698Y-106150808D01*
X107844439Y-106046524D01*
X107902129Y-105943300D01*
X107905999Y-105931353D01*
X107911919Y-105920278D01*
X107946255Y-105807089D01*
X107982687Y-105694627D01*
X107984151Y-105682162D01*
X107987799Y-105670137D01*
X107999396Y-105552385D01*
X108013184Y-105435016D01*
X108007000Y-105357307D01*
X108007000Y-97069660D01*
X112652241Y-92424420D01*
X112702870Y-92382870D01*
X112744422Y-92332239D01*
X112868698Y-92180809D01*
X112991919Y-91950278D01*
X112991919Y-91950277D01*
X113067799Y-91700137D01*
X113087000Y-91505184D01*
X113087000Y-91505174D01*
X113093419Y-91440000D01*
X113087000Y-91374826D01*
X113087000Y-89110309D01*
X113170443Y-89154910D01*
X113307483Y-89196480D01*
X113450000Y-89210517D01*
X115150000Y-89210517D01*
X115292517Y-89196480D01*
X115429557Y-89154910D01*
X115555853Y-89087403D01*
X115666554Y-88996554D01*
X115757403Y-88885853D01*
X115824910Y-88759557D01*
X115866480Y-88622517D01*
X115880517Y-88480000D01*
X115880517Y-88208986D01*
X116332503Y-87757000D01*
X120523000Y-87757000D01*
X120523000Y-88849088D01*
X120389863Y-88862201D01*
X120139722Y-88938081D01*
X119909190Y-89061303D01*
X119767625Y-89177483D01*
X119707130Y-89227130D01*
X119665579Y-89277760D01*
X112137765Y-96805575D01*
X112087130Y-96847130D01*
X112045578Y-96897762D01*
X111921302Y-97049192D01*
X111839189Y-97202815D01*
X111798081Y-97279723D01*
X111722201Y-97529864D01*
X111703000Y-97724817D01*
X111703000Y-97724826D01*
X111696581Y-97790000D01*
X111703000Y-97855174D01*
X111703001Y-104074816D01*
X111696581Y-104140000D01*
X111722202Y-104400137D01*
X111798081Y-104650277D01*
X111921302Y-104880808D01*
X112035841Y-105020373D01*
X112087131Y-105082870D01*
X112137761Y-105124421D01*
X114585579Y-107572240D01*
X114627130Y-107622870D01*
X114677760Y-107664421D01*
X114677761Y-107664422D01*
X114829190Y-107788697D01*
X114829192Y-107788698D01*
X115059722Y-107911919D01*
X115309863Y-107987799D01*
X115504816Y-108007000D01*
X115504828Y-108007000D01*
X115569999Y-108013419D01*
X115635171Y-108007000D01*
X119492205Y-108007000D01*
X119379497Y-108099497D01*
X119182428Y-108339627D01*
X119035993Y-108613588D01*
X118945818Y-108910854D01*
X118915370Y-109220000D01*
X118945818Y-109529146D01*
X119035993Y-109826412D01*
X119182428Y-110100373D01*
X119379497Y-110340503D01*
X119561660Y-110490000D01*
X119379497Y-110639497D01*
X119182428Y-110879627D01*
X119035993Y-111153588D01*
X118945818Y-111450854D01*
X118915370Y-111760000D01*
X118945818Y-112069146D01*
X119035993Y-112366412D01*
X119182428Y-112640373D01*
X119379497Y-112880503D01*
X119561660Y-113030000D01*
X119379497Y-113179497D01*
X119182428Y-113419627D01*
X119035993Y-113693588D01*
X118945818Y-113990854D01*
X118915370Y-114300000D01*
X118945818Y-114609146D01*
X119035993Y-114906412D01*
X119182428Y-115180373D01*
X119379497Y-115420503D01*
X119561660Y-115570000D01*
X119379497Y-115719497D01*
X119182428Y-115959627D01*
X119035993Y-116233588D01*
X118945818Y-116530854D01*
X118915370Y-116840000D01*
X118945818Y-117149146D01*
X119035993Y-117446412D01*
X119182428Y-117720373D01*
X119379497Y-117960503D01*
X119561660Y-118110000D01*
X119379497Y-118259497D01*
X119182428Y-118499627D01*
X119035993Y-118773588D01*
X118945818Y-119070854D01*
X118915370Y-119380000D01*
X118945818Y-119689146D01*
X119035993Y-119986412D01*
X119182428Y-120260373D01*
X119379497Y-120500503D01*
X119561660Y-120650000D01*
X119379497Y-120799497D01*
X119182428Y-121039627D01*
X119035993Y-121313588D01*
X118945818Y-121610854D01*
X118915370Y-121920000D01*
X118945818Y-122229146D01*
X119035993Y-122526412D01*
X119182428Y-122800373D01*
X119379497Y-123040503D01*
X119561660Y-123190000D01*
X119379497Y-123339497D01*
X119182428Y-123579627D01*
X119035993Y-123853588D01*
X118945818Y-124150854D01*
X118915370Y-124460000D01*
X118945818Y-124769146D01*
X119035993Y-125066412D01*
X119182428Y-125340373D01*
X119379497Y-125580503D01*
X119561660Y-125730000D01*
X119379497Y-125879497D01*
X119182428Y-126119627D01*
X119035993Y-126393588D01*
X118945818Y-126690854D01*
X118915370Y-127000000D01*
X118945818Y-127309146D01*
X119035993Y-127606412D01*
X119182428Y-127880373D01*
X119379497Y-128120503D01*
X119619627Y-128317572D01*
X119646424Y-128331895D01*
X119508205Y-128433198D01*
X119311336Y-128647954D01*
X119160146Y-128896991D01*
X119060446Y-129170739D01*
X119058524Y-129183110D01*
X119179845Y-129413000D01*
X120523000Y-129413000D01*
X120523000Y-129393000D01*
X120777000Y-129393000D01*
X120777000Y-129413000D01*
X122120155Y-129413000D01*
X122241476Y-129183110D01*
X122239554Y-129170739D01*
X122139854Y-128896991D01*
X121988664Y-128647954D01*
X121791795Y-128433198D01*
X121653576Y-128331895D01*
X121680373Y-128317572D01*
X121920503Y-128120503D01*
X122117572Y-127880373D01*
X122264007Y-127606412D01*
X122354182Y-127309146D01*
X122384630Y-127000000D01*
X122354182Y-126690854D01*
X122264007Y-126393588D01*
X122117572Y-126119627D01*
X121920503Y-125879497D01*
X121738340Y-125730000D01*
X121920503Y-125580503D01*
X122117572Y-125340373D01*
X122264007Y-125066412D01*
X122354182Y-124769146D01*
X122384630Y-124460000D01*
X122354182Y-124150854D01*
X122264007Y-123853588D01*
X122117572Y-123579627D01*
X121920503Y-123339497D01*
X121738340Y-123190000D01*
X121920503Y-123040503D01*
X122117572Y-122800373D01*
X122133806Y-122770000D01*
X124241928Y-122770000D01*
X124254188Y-122894482D01*
X124290498Y-123014180D01*
X124349463Y-123124494D01*
X124428815Y-123221185D01*
X124525506Y-123300537D01*
X124635820Y-123359502D01*
X124755518Y-123395812D01*
X124880000Y-123408072D01*
X125444250Y-123405000D01*
X125603000Y-123246250D01*
X125603000Y-122047000D01*
X125857000Y-122047000D01*
X125857000Y-123246250D01*
X126015750Y-123405000D01*
X126580000Y-123408072D01*
X126704482Y-123395812D01*
X126824180Y-123359502D01*
X126934494Y-123300537D01*
X127031185Y-123221185D01*
X127110537Y-123124494D01*
X127169502Y-123014180D01*
X127205812Y-122894482D01*
X127218072Y-122770000D01*
X127215000Y-122205750D01*
X127056250Y-122047000D01*
X125857000Y-122047000D01*
X125603000Y-122047000D01*
X124403750Y-122047000D01*
X124245000Y-122205750D01*
X124241928Y-122770000D01*
X122133806Y-122770000D01*
X122264007Y-122526412D01*
X122354182Y-122229146D01*
X122384630Y-121920000D01*
X122354182Y-121610854D01*
X122264007Y-121313588D01*
X122117572Y-121039627D01*
X122008728Y-120907000D01*
X124265872Y-120907000D01*
X124254188Y-120945518D01*
X124241928Y-121070000D01*
X124245000Y-121634250D01*
X124403750Y-121793000D01*
X125603000Y-121793000D01*
X125603000Y-121773000D01*
X125857000Y-121773000D01*
X125857000Y-121793000D01*
X127056250Y-121793000D01*
X127215000Y-121634250D01*
X127218072Y-121070000D01*
X127205812Y-120945518D01*
X127169502Y-120825820D01*
X127110537Y-120715506D01*
X127031185Y-120618815D01*
X126934494Y-120539463D01*
X126847338Y-120492877D01*
X126954936Y-120385279D01*
X127127519Y-120126989D01*
X127246396Y-119839994D01*
X127307000Y-119535321D01*
X127307000Y-119224679D01*
X127246396Y-118920006D01*
X127127519Y-118633011D01*
X126954936Y-118374721D01*
X126735279Y-118155064D01*
X126667836Y-118110000D01*
X126735279Y-118064936D01*
X126954936Y-117845279D01*
X127127519Y-117586989D01*
X127246396Y-117299994D01*
X127307000Y-116995321D01*
X127307000Y-116684679D01*
X127246396Y-116380006D01*
X127127519Y-116093011D01*
X126954936Y-115834721D01*
X126949642Y-115829427D01*
X127000000Y-115834387D01*
X127075001Y-115827000D01*
X127075011Y-115827000D01*
X127299344Y-115804905D01*
X127587185Y-115717590D01*
X127852460Y-115575797D01*
X128084976Y-115384976D01*
X128132797Y-115326706D01*
X130553001Y-112906503D01*
X130553000Y-123827496D01*
X122377087Y-132003410D01*
X122354182Y-131770854D01*
X122264007Y-131473588D01*
X122117572Y-131199627D01*
X121920503Y-130959497D01*
X121680373Y-130762428D01*
X121653576Y-130748105D01*
X121791795Y-130646802D01*
X121988664Y-130432046D01*
X122139854Y-130183009D01*
X122239554Y-129909261D01*
X122241476Y-129896890D01*
X122120155Y-129667000D01*
X120777000Y-129667000D01*
X120777000Y-129687000D01*
X120523000Y-129687000D01*
X120523000Y-129667000D01*
X119179845Y-129667000D01*
X119058524Y-129896890D01*
X119060446Y-129909261D01*
X119160146Y-130183009D01*
X119311336Y-130432046D01*
X119508205Y-130646802D01*
X119646424Y-130748105D01*
X119619627Y-130762428D01*
X119379497Y-130959497D01*
X119182428Y-131199627D01*
X119035993Y-131473588D01*
X118945818Y-131770854D01*
X118915370Y-132080000D01*
X118945818Y-132389146D01*
X119035993Y-132686412D01*
X119182428Y-132960373D01*
X119291272Y-133093000D01*
X118742504Y-133093000D01*
X116702797Y-131053294D01*
X116654976Y-130995024D01*
X116422460Y-130804203D01*
X116157185Y-130662410D01*
X115869344Y-130575095D01*
X115645011Y-130553000D01*
X115645001Y-130553000D01*
X115570000Y-130545613D01*
X115494999Y-130553000D01*
X96477784Y-130553000D01*
X96588664Y-130432046D01*
X96739854Y-130183009D01*
X96839554Y-129909261D01*
X96841476Y-129896890D01*
X96720155Y-129667000D01*
X95377000Y-129667000D01*
X95377000Y-129687000D01*
X95123000Y-129687000D01*
X95123000Y-129667000D01*
X93779845Y-129667000D01*
X93658524Y-129896890D01*
X93660446Y-129909261D01*
X93760146Y-130183009D01*
X93911336Y-130432046D01*
X94108205Y-130646802D01*
X94246424Y-130748105D01*
X94219627Y-130762428D01*
X93979497Y-130959497D01*
X93782428Y-131199627D01*
X93635993Y-131473588D01*
X93545818Y-131770854D01*
X93515370Y-132080000D01*
X93545818Y-132389146D01*
X93635993Y-132686412D01*
X93782428Y-132960373D01*
X93979497Y-133200503D01*
X94219627Y-133397572D01*
X94493588Y-133544007D01*
X94790854Y-133634182D01*
X95022531Y-133657000D01*
X95477469Y-133657000D01*
X95709146Y-133634182D01*
X95798753Y-133607000D01*
X114937497Y-133607000D01*
X116977208Y-135646712D01*
X117025024Y-135704976D01*
X117257540Y-135895797D01*
X117522815Y-136037590D01*
X117810656Y-136124905D01*
X118034989Y-136147000D01*
X118034998Y-136147000D01*
X118109999Y-136154387D01*
X118185000Y-136147000D01*
X121844999Y-136147000D01*
X121920000Y-136154387D01*
X121995001Y-136147000D01*
X121995011Y-136147000D01*
X122219344Y-136124905D01*
X122507185Y-136037590D01*
X122772460Y-135895797D01*
X123004976Y-135704976D01*
X123052797Y-135646706D01*
X133106713Y-125592791D01*
X133164976Y-125544976D01*
X133355797Y-125312460D01*
X133497590Y-125047185D01*
X133584905Y-124759344D01*
X133607000Y-124535011D01*
X133607000Y-124535004D01*
X133614387Y-124460000D01*
X133607000Y-124384996D01*
X133607000Y-107312503D01*
X136916718Y-104002787D01*
X136974976Y-103954976D01*
X137022788Y-103896717D01*
X137022793Y-103896712D01*
X137165796Y-103722461D01*
X137165798Y-103722459D01*
X137307590Y-103457185D01*
X137367518Y-103259627D01*
X137394905Y-103169345D01*
X137424388Y-102870000D01*
X137417000Y-102794989D01*
X137417000Y-100457000D01*
X144653000Y-100457000D01*
X144653000Y-101824653D01*
X137268822Y-109208832D01*
X137202918Y-109262918D01*
X136987104Y-109525889D01*
X136826740Y-109825909D01*
X136727988Y-110151450D01*
X136707517Y-110359301D01*
X136694644Y-110490000D01*
X136703000Y-110574838D01*
X136703001Y-127554652D01*
X129648822Y-134608832D01*
X129582918Y-134662918D01*
X129367104Y-134925889D01*
X129206740Y-135225909D01*
X129107988Y-135551450D01*
X129088158Y-135752792D01*
X129074644Y-135890000D01*
X129083000Y-135974839D01*
X129083001Y-138259900D01*
X129083000Y-138259905D01*
X129083000Y-138600095D01*
X129099634Y-138683718D01*
X129107989Y-138768551D01*
X129132735Y-138850127D01*
X129149368Y-138933747D01*
X129181995Y-139012515D01*
X129206741Y-139094092D01*
X129246927Y-139169274D01*
X129279553Y-139248041D01*
X129326919Y-139318929D01*
X129367105Y-139394112D01*
X129421186Y-139460010D01*
X129468552Y-139530898D01*
X129528837Y-139591183D01*
X129582919Y-139657082D01*
X129648818Y-139711164D01*
X129709102Y-139771448D01*
X129779989Y-139818813D01*
X129845889Y-139872896D01*
X129921074Y-139913083D01*
X129991959Y-139960447D01*
X130070722Y-139993072D01*
X130145909Y-140033260D01*
X130227491Y-140058008D01*
X130306253Y-140090632D01*
X130389867Y-140107264D01*
X130471450Y-140132012D01*
X130556291Y-140140368D01*
X130639905Y-140157000D01*
X130725159Y-140157000D01*
X130810000Y-140165356D01*
X130894841Y-140157000D01*
X130980095Y-140157000D01*
X131063708Y-140140368D01*
X131148551Y-140132012D01*
X131230136Y-140107263D01*
X131313747Y-140090632D01*
X131392506Y-140058009D01*
X131474092Y-140033260D01*
X131549282Y-139993070D01*
X131628041Y-139960447D01*
X131698922Y-139913086D01*
X131774112Y-139872896D01*
X131840017Y-139818809D01*
X131910898Y-139771448D01*
X131971178Y-139711168D01*
X132037082Y-139657082D01*
X132091168Y-139591178D01*
X132151448Y-139530898D01*
X132198809Y-139460017D01*
X132252896Y-139394112D01*
X132293086Y-139318922D01*
X132340447Y-139248041D01*
X132373070Y-139169282D01*
X132413260Y-139094092D01*
X132438009Y-139012506D01*
X132470632Y-138933747D01*
X132487263Y-138850136D01*
X132512012Y-138768551D01*
X132520368Y-138683708D01*
X132537000Y-138600095D01*
X132537000Y-136605346D01*
X139591183Y-129551164D01*
X139657082Y-129497082D01*
X139872896Y-129234112D01*
X140033260Y-128934092D01*
X140132012Y-128608551D01*
X140157000Y-128354841D01*
X140157000Y-128354832D01*
X140165355Y-128270001D01*
X140157000Y-128185170D01*
X140157000Y-111205346D01*
X144653000Y-106709347D01*
X144653000Y-140843000D01*
X121858238Y-140843000D01*
X122002203Y-140495437D01*
X122107000Y-139968586D01*
X122107000Y-139431414D01*
X122002203Y-138904563D01*
X121796636Y-138408281D01*
X121498199Y-137961639D01*
X121118361Y-137581801D01*
X120671719Y-137283364D01*
X120175437Y-137077797D01*
X119648586Y-136973000D01*
X119111414Y-136973000D01*
X118584563Y-137077797D01*
X118088281Y-137283364D01*
X117641639Y-137581801D01*
X117261801Y-137961639D01*
X116963364Y-138408281D01*
X116757797Y-138904563D01*
X116653000Y-139431414D01*
X116653000Y-139968586D01*
X116757797Y-140495437D01*
X116901762Y-140843000D01*
X98998238Y-140843000D01*
X99142203Y-140495437D01*
X99247000Y-139968586D01*
X99247000Y-139431414D01*
X99142203Y-138904563D01*
X98936636Y-138408281D01*
X98638199Y-137961639D01*
X98258361Y-137581801D01*
X97811719Y-137283364D01*
X97315437Y-137077797D01*
X96788586Y-136973000D01*
X96251414Y-136973000D01*
X95724563Y-137077797D01*
X95228281Y-137283364D01*
X94781639Y-137581801D01*
X94401801Y-137961639D01*
X94103364Y-138408281D01*
X93897797Y-138904563D01*
X93793000Y-139431414D01*
X93793000Y-139968586D01*
X93897797Y-140495437D01*
X94041762Y-140843000D01*
X91567000Y-140843000D01*
X91567000Y-90248490D01*
X96549980Y-87757000D01*
X102655000Y-87757000D01*
X102655000Y-87757002D01*
G37*
X102655000Y-87757002D02*
X102819185Y-87757002D01*
X102698519Y-87986891D01*
X102795843Y-88261252D01*
X102944822Y-88511355D01*
X103139731Y-88727588D01*
X103373080Y-88901641D01*
X103635901Y-89026825D01*
X103783110Y-89071476D01*
X104013000Y-88950155D01*
X104013000Y-87757000D01*
X104267000Y-87757000D01*
X104267000Y-88950155D01*
X104496890Y-89071476D01*
X104644099Y-89026825D01*
X104906920Y-88901641D01*
X105140269Y-88727588D01*
X105335178Y-88511355D01*
X105352656Y-88482014D01*
X105353001Y-88482530D01*
X105353000Y-90890339D01*
X100707765Y-95535575D01*
X100657130Y-95577130D01*
X100582933Y-95667540D01*
X100491302Y-95779192D01*
X100460304Y-95837186D01*
X100368081Y-96009723D01*
X100292201Y-96259864D01*
X100273000Y-96454817D01*
X100273000Y-96454826D01*
X100266581Y-96520000D01*
X100273000Y-96585174D01*
X100273001Y-104826854D01*
X96933237Y-107893000D01*
X96407795Y-107893000D01*
X96520503Y-107800503D01*
X96717572Y-107560373D01*
X96864007Y-107286412D01*
X96954182Y-106989146D01*
X96984630Y-106680000D01*
X96954182Y-106370854D01*
X96864007Y-106073588D01*
X96717572Y-105799627D01*
X96520503Y-105559497D01*
X96338340Y-105410000D01*
X96520503Y-105260503D01*
X96717572Y-105020373D01*
X96864007Y-104746412D01*
X96954182Y-104449146D01*
X96984630Y-104140000D01*
X96954182Y-103830854D01*
X96864007Y-103533588D01*
X96717572Y-103259627D01*
X96520503Y-103019497D01*
X96338340Y-102870000D01*
X96520503Y-102720503D01*
X96717572Y-102480373D01*
X96864007Y-102206412D01*
X96954182Y-101909146D01*
X96984630Y-101600000D01*
X96954182Y-101290854D01*
X96864007Y-100993588D01*
X96717572Y-100719627D01*
X96520503Y-100479497D01*
X96338340Y-100330000D01*
X96520503Y-100180503D01*
X96717572Y-99940373D01*
X96864007Y-99666412D01*
X96954182Y-99369146D01*
X96984630Y-99060000D01*
X96954182Y-98750854D01*
X96864007Y-98453588D01*
X96717572Y-98179627D01*
X96520503Y-97939497D01*
X96338340Y-97790000D01*
X96520503Y-97640503D01*
X96717572Y-97400373D01*
X96864007Y-97126412D01*
X96954182Y-96829146D01*
X96984630Y-96520000D01*
X96954182Y-96210854D01*
X96864007Y-95913588D01*
X96717572Y-95639627D01*
X96520503Y-95399497D01*
X96280373Y-95202428D01*
X96006412Y-95055993D01*
X95709146Y-94965818D01*
X95477469Y-94943000D01*
X95022531Y-94943000D01*
X94790854Y-94965818D01*
X94493588Y-95055993D01*
X94219627Y-95202428D01*
X93979497Y-95399497D01*
X93782428Y-95639627D01*
X93635993Y-95913588D01*
X93545818Y-96210854D01*
X93515370Y-96520000D01*
X93545818Y-96829146D01*
X93635993Y-97126412D01*
X93782428Y-97400373D01*
X93979497Y-97640503D01*
X94161660Y-97790000D01*
X93979497Y-97939497D01*
X93782428Y-98179627D01*
X93635993Y-98453588D01*
X93545818Y-98750854D01*
X93515370Y-99060000D01*
X93545818Y-99369146D01*
X93635993Y-99666412D01*
X93782428Y-99940373D01*
X93979497Y-100180503D01*
X94161660Y-100330000D01*
X93979497Y-100479497D01*
X93782428Y-100719627D01*
X93635993Y-100993588D01*
X93545818Y-101290854D01*
X93515370Y-101600000D01*
X93545818Y-101909146D01*
X93635993Y-102206412D01*
X93782428Y-102480373D01*
X93979497Y-102720503D01*
X94161660Y-102870000D01*
X93979497Y-103019497D01*
X93782428Y-103259627D01*
X93635993Y-103533588D01*
X93545818Y-103830854D01*
X93515370Y-104140000D01*
X93545818Y-104449146D01*
X93635993Y-104746412D01*
X93782428Y-105020373D01*
X93979497Y-105260503D01*
X94161660Y-105410000D01*
X93979497Y-105559497D01*
X93782428Y-105799627D01*
X93635993Y-106073588D01*
X93545818Y-106370854D01*
X93515370Y-106680000D01*
X93545818Y-106989146D01*
X93635993Y-107286412D01*
X93782428Y-107560373D01*
X93979497Y-107800503D01*
X94161660Y-107950000D01*
X93979497Y-108099497D01*
X93782428Y-108339627D01*
X93635993Y-108613588D01*
X93545818Y-108910854D01*
X93515370Y-109220000D01*
X93545818Y-109529146D01*
X93635993Y-109826412D01*
X93782428Y-110100373D01*
X93979497Y-110340503D01*
X94161660Y-110490000D01*
X93979497Y-110639497D01*
X93782428Y-110879627D01*
X93635993Y-111153588D01*
X93545818Y-111450854D01*
X93515370Y-111760000D01*
X93545818Y-112069146D01*
X93635993Y-112366412D01*
X93782428Y-112640373D01*
X93979497Y-112880503D01*
X94161660Y-113030000D01*
X93979497Y-113179497D01*
X93782428Y-113419627D01*
X93635993Y-113693588D01*
X93545818Y-113990854D01*
X93515370Y-114300000D01*
X93545818Y-114609146D01*
X93635993Y-114906412D01*
X93782428Y-115180373D01*
X93979497Y-115420503D01*
X94161660Y-115570000D01*
X93979497Y-115719497D01*
X93782428Y-115959627D01*
X93635993Y-116233588D01*
X93545818Y-116530854D01*
X93515370Y-116840000D01*
X93545818Y-117149146D01*
X93635993Y-117446412D01*
X93782428Y-117720373D01*
X93979497Y-117960503D01*
X94161660Y-118110000D01*
X93979497Y-118259497D01*
X93782428Y-118499627D01*
X93635993Y-118773588D01*
X93545818Y-119070854D01*
X93515370Y-119380000D01*
X93545818Y-119689146D01*
X93635993Y-119986412D01*
X93782428Y-120260373D01*
X93979497Y-120500503D01*
X94161660Y-120650000D01*
X93979497Y-120799497D01*
X93782428Y-121039627D01*
X93635993Y-121313588D01*
X93545818Y-121610854D01*
X93515370Y-121920000D01*
X93545818Y-122229146D01*
X93635993Y-122526412D01*
X93782428Y-122800373D01*
X93979497Y-123040503D01*
X94161660Y-123190000D01*
X93979497Y-123339497D01*
X93782428Y-123579627D01*
X93635993Y-123853588D01*
X93545818Y-124150854D01*
X93515370Y-124460000D01*
X93545818Y-124769146D01*
X93635993Y-125066412D01*
X93782428Y-125340373D01*
X93979497Y-125580503D01*
X94161660Y-125730000D01*
X93979497Y-125879497D01*
X93782428Y-126119627D01*
X93635993Y-126393588D01*
X93545818Y-126690854D01*
X93515370Y-127000000D01*
X93545818Y-127309146D01*
X93635993Y-127606412D01*
X93782428Y-127880373D01*
X93979497Y-128120503D01*
X94219627Y-128317572D01*
X94246424Y-128331895D01*
X94108205Y-128433198D01*
X93911336Y-128647954D01*
X93760146Y-128896991D01*
X93660446Y-129170739D01*
X93658524Y-129183110D01*
X93779845Y-129413000D01*
X95123000Y-129413000D01*
X95123000Y-129393000D01*
X95377000Y-129393000D01*
X95377000Y-129413000D01*
X96720155Y-129413000D01*
X96841476Y-129183110D01*
X96839554Y-129170739D01*
X96739854Y-128896991D01*
X96588664Y-128647954D01*
X96391795Y-128433198D01*
X96253576Y-128331895D01*
X96280373Y-128317572D01*
X96520503Y-128120503D01*
X96717572Y-127880373D01*
X96864007Y-127606412D01*
X96954182Y-127309146D01*
X96984630Y-127000000D01*
X96954182Y-126690854D01*
X96864007Y-126393588D01*
X96717572Y-126119627D01*
X96520503Y-125879497D01*
X96338340Y-125730000D01*
X96520503Y-125580503D01*
X96717572Y-125340373D01*
X96864007Y-125066412D01*
X96954182Y-124769146D01*
X96984630Y-124460000D01*
X96954182Y-124150854D01*
X96864007Y-123853588D01*
X96717572Y-123579627D01*
X96520503Y-123339497D01*
X96338340Y-123190000D01*
X96520503Y-123040503D01*
X96717572Y-122800373D01*
X96864007Y-122526412D01*
X96954182Y-122229146D01*
X96984630Y-121920000D01*
X96954182Y-121610854D01*
X96864007Y-121313588D01*
X96717572Y-121039627D01*
X96520503Y-120799497D01*
X96338340Y-120650000D01*
X96520503Y-120500503D01*
X96717572Y-120260373D01*
X96864007Y-119986412D01*
X96954182Y-119689146D01*
X96984630Y-119380000D01*
X96954182Y-119070854D01*
X96864007Y-118773588D01*
X96717572Y-118499627D01*
X96520503Y-118259497D01*
X96338340Y-118110000D01*
X96520503Y-117960503D01*
X96717572Y-117720373D01*
X96864007Y-117446412D01*
X96954182Y-117149146D01*
X96984630Y-116840000D01*
X96954182Y-116530854D01*
X96864007Y-116233588D01*
X96717572Y-115959627D01*
X96520503Y-115719497D01*
X96407795Y-115627000D01*
X97372343Y-115627000D01*
X97424985Y-115633184D01*
X97502694Y-115627000D01*
X97515184Y-115627000D01*
X97567743Y-115621823D01*
X97685556Y-115612448D01*
X97697633Y-115609031D01*
X97710137Y-115607799D01*
X97823337Y-115573460D01*
X97937076Y-115541275D01*
X97948258Y-115535565D01*
X97960278Y-115531919D01*
X98064594Y-115476161D01*
X98169878Y-115422400D01*
X98179730Y-115414619D01*
X98190808Y-115408698D01*
X98282221Y-115333677D01*
X98323613Y-115300988D01*
X98332598Y-115292334D01*
X98392870Y-115242870D01*
X98426503Y-115201888D01*
X107562606Y-106402327D01*
X107622870Y-106352870D01*
X107697867Y-106261486D01*
X107774604Y-106171479D01*
X107780731Y-106160515D01*
X107788698Y-106150808D01*
X107844439Y-106046524D01*
X107902129Y-105943300D01*
X107905999Y-105931353D01*
X107911919Y-105920278D01*
X107946255Y-105807089D01*
X107982687Y-105694627D01*
X107984151Y-105682162D01*
X107987799Y-105670137D01*
X107999396Y-105552385D01*
X108013184Y-105435016D01*
X108007000Y-105357307D01*
X108007000Y-97069660D01*
X112652241Y-92424420D01*
X112702870Y-92382870D01*
X112744422Y-92332239D01*
X112868698Y-92180809D01*
X112991919Y-91950278D01*
X112991919Y-91950277D01*
X113067799Y-91700137D01*
X113087000Y-91505184D01*
X113087000Y-91505174D01*
X113093419Y-91440000D01*
X113087000Y-91374826D01*
X113087000Y-89110309D01*
X113170443Y-89154910D01*
X113307483Y-89196480D01*
X113450000Y-89210517D01*
X115150000Y-89210517D01*
X115292517Y-89196480D01*
X115429557Y-89154910D01*
X115555853Y-89087403D01*
X115666554Y-88996554D01*
X115757403Y-88885853D01*
X115824910Y-88759557D01*
X115866480Y-88622517D01*
X115880517Y-88480000D01*
X115880517Y-88208986D01*
X116332503Y-87757000D01*
X120523000Y-87757000D01*
X120523000Y-88849088D01*
X120389863Y-88862201D01*
X120139722Y-88938081D01*
X119909190Y-89061303D01*
X119767625Y-89177483D01*
X119707130Y-89227130D01*
X119665579Y-89277760D01*
X112137765Y-96805575D01*
X112087130Y-96847130D01*
X112045578Y-96897762D01*
X111921302Y-97049192D01*
X111839189Y-97202815D01*
X111798081Y-97279723D01*
X111722201Y-97529864D01*
X111703000Y-97724817D01*
X111703000Y-97724826D01*
X111696581Y-97790000D01*
X111703000Y-97855174D01*
X111703001Y-104074816D01*
X111696581Y-104140000D01*
X111722202Y-104400137D01*
X111798081Y-104650277D01*
X111921302Y-104880808D01*
X112035841Y-105020373D01*
X112087131Y-105082870D01*
X112137761Y-105124421D01*
X114585579Y-107572240D01*
X114627130Y-107622870D01*
X114677760Y-107664421D01*
X114677761Y-107664422D01*
X114829190Y-107788697D01*
X114829192Y-107788698D01*
X115059722Y-107911919D01*
X115309863Y-107987799D01*
X115504816Y-108007000D01*
X115504828Y-108007000D01*
X115569999Y-108013419D01*
X115635171Y-108007000D01*
X119492205Y-108007000D01*
X119379497Y-108099497D01*
X119182428Y-108339627D01*
X119035993Y-108613588D01*
X118945818Y-108910854D01*
X118915370Y-109220000D01*
X118945818Y-109529146D01*
X119035993Y-109826412D01*
X119182428Y-110100373D01*
X119379497Y-110340503D01*
X119561660Y-110490000D01*
X119379497Y-110639497D01*
X119182428Y-110879627D01*
X119035993Y-111153588D01*
X118945818Y-111450854D01*
X118915370Y-111760000D01*
X118945818Y-112069146D01*
X119035993Y-112366412D01*
X119182428Y-112640373D01*
X119379497Y-112880503D01*
X119561660Y-113030000D01*
X119379497Y-113179497D01*
X119182428Y-113419627D01*
X119035993Y-113693588D01*
X118945818Y-113990854D01*
X118915370Y-114300000D01*
X118945818Y-114609146D01*
X119035993Y-114906412D01*
X119182428Y-115180373D01*
X119379497Y-115420503D01*
X119561660Y-115570000D01*
X119379497Y-115719497D01*
X119182428Y-115959627D01*
X119035993Y-116233588D01*
X118945818Y-116530854D01*
X118915370Y-116840000D01*
X118945818Y-117149146D01*
X119035993Y-117446412D01*
X119182428Y-117720373D01*
X119379497Y-117960503D01*
X119561660Y-118110000D01*
X119379497Y-118259497D01*
X119182428Y-118499627D01*
X119035993Y-118773588D01*
X118945818Y-119070854D01*
X118915370Y-119380000D01*
X118945818Y-119689146D01*
X119035993Y-119986412D01*
X119182428Y-120260373D01*
X119379497Y-120500503D01*
X119561660Y-120650000D01*
X119379497Y-120799497D01*
X119182428Y-121039627D01*
X119035993Y-121313588D01*
X118945818Y-121610854D01*
X118915370Y-121920000D01*
X118945818Y-122229146D01*
X119035993Y-122526412D01*
X119182428Y-122800373D01*
X119379497Y-123040503D01*
X119561660Y-123190000D01*
X119379497Y-123339497D01*
X119182428Y-123579627D01*
X119035993Y-123853588D01*
X118945818Y-124150854D01*
X118915370Y-124460000D01*
X118945818Y-124769146D01*
X119035993Y-125066412D01*
X119182428Y-125340373D01*
X119379497Y-125580503D01*
X119561660Y-125730000D01*
X119379497Y-125879497D01*
X119182428Y-126119627D01*
X119035993Y-126393588D01*
X118945818Y-126690854D01*
X118915370Y-127000000D01*
X118945818Y-127309146D01*
X119035993Y-127606412D01*
X119182428Y-127880373D01*
X119379497Y-128120503D01*
X119619627Y-128317572D01*
X119646424Y-128331895D01*
X119508205Y-128433198D01*
X119311336Y-128647954D01*
X119160146Y-128896991D01*
X119060446Y-129170739D01*
X119058524Y-129183110D01*
X119179845Y-129413000D01*
X120523000Y-129413000D01*
X120523000Y-129393000D01*
X120777000Y-129393000D01*
X120777000Y-129413000D01*
X122120155Y-129413000D01*
X122241476Y-129183110D01*
X122239554Y-129170739D01*
X122139854Y-128896991D01*
X121988664Y-128647954D01*
X121791795Y-128433198D01*
X121653576Y-128331895D01*
X121680373Y-128317572D01*
X121920503Y-128120503D01*
X122117572Y-127880373D01*
X122264007Y-127606412D01*
X122354182Y-127309146D01*
X122384630Y-127000000D01*
X122354182Y-126690854D01*
X122264007Y-126393588D01*
X122117572Y-126119627D01*
X121920503Y-125879497D01*
X121738340Y-125730000D01*
X121920503Y-125580503D01*
X122117572Y-125340373D01*
X122264007Y-125066412D01*
X122354182Y-124769146D01*
X122384630Y-124460000D01*
X122354182Y-124150854D01*
X122264007Y-123853588D01*
X122117572Y-123579627D01*
X121920503Y-123339497D01*
X121738340Y-123190000D01*
X121920503Y-123040503D01*
X122117572Y-122800373D01*
X122133806Y-122770000D01*
X124241928Y-122770000D01*
X124254188Y-122894482D01*
X124290498Y-123014180D01*
X124349463Y-123124494D01*
X124428815Y-123221185D01*
X124525506Y-123300537D01*
X124635820Y-123359502D01*
X124755518Y-123395812D01*
X124880000Y-123408072D01*
X125444250Y-123405000D01*
X125603000Y-123246250D01*
X125603000Y-122047000D01*
X125857000Y-122047000D01*
X125857000Y-123246250D01*
X126015750Y-123405000D01*
X126580000Y-123408072D01*
X126704482Y-123395812D01*
X126824180Y-123359502D01*
X126934494Y-123300537D01*
X127031185Y-123221185D01*
X127110537Y-123124494D01*
X127169502Y-123014180D01*
X127205812Y-122894482D01*
X127218072Y-122770000D01*
X127215000Y-122205750D01*
X127056250Y-122047000D01*
X125857000Y-122047000D01*
X125603000Y-122047000D01*
X124403750Y-122047000D01*
X124245000Y-122205750D01*
X124241928Y-122770000D01*
X122133806Y-122770000D01*
X122264007Y-122526412D01*
X122354182Y-122229146D01*
X122384630Y-121920000D01*
X122354182Y-121610854D01*
X122264007Y-121313588D01*
X122117572Y-121039627D01*
X122008728Y-120907000D01*
X124265872Y-120907000D01*
X124254188Y-120945518D01*
X124241928Y-121070000D01*
X124245000Y-121634250D01*
X124403750Y-121793000D01*
X125603000Y-121793000D01*
X125603000Y-121773000D01*
X125857000Y-121773000D01*
X125857000Y-121793000D01*
X127056250Y-121793000D01*
X127215000Y-121634250D01*
X127218072Y-121070000D01*
X127205812Y-120945518D01*
X127169502Y-120825820D01*
X127110537Y-120715506D01*
X127031185Y-120618815D01*
X126934494Y-120539463D01*
X126847338Y-120492877D01*
X126954936Y-120385279D01*
X127127519Y-120126989D01*
X127246396Y-119839994D01*
X127307000Y-119535321D01*
X127307000Y-119224679D01*
X127246396Y-118920006D01*
X127127519Y-118633011D01*
X126954936Y-118374721D01*
X126735279Y-118155064D01*
X126667836Y-118110000D01*
X126735279Y-118064936D01*
X126954936Y-117845279D01*
X127127519Y-117586989D01*
X127246396Y-117299994D01*
X127307000Y-116995321D01*
X127307000Y-116684679D01*
X127246396Y-116380006D01*
X127127519Y-116093011D01*
X126954936Y-115834721D01*
X126949642Y-115829427D01*
X127000000Y-115834387D01*
X127075001Y-115827000D01*
X127075011Y-115827000D01*
X127299344Y-115804905D01*
X127587185Y-115717590D01*
X127852460Y-115575797D01*
X128084976Y-115384976D01*
X128132797Y-115326706D01*
X130553001Y-112906503D01*
X130553000Y-123827496D01*
X122377087Y-132003410D01*
X122354182Y-131770854D01*
X122264007Y-131473588D01*
X122117572Y-131199627D01*
X121920503Y-130959497D01*
X121680373Y-130762428D01*
X121653576Y-130748105D01*
X121791795Y-130646802D01*
X121988664Y-130432046D01*
X122139854Y-130183009D01*
X122239554Y-129909261D01*
X122241476Y-129896890D01*
X122120155Y-129667000D01*
X120777000Y-129667000D01*
X120777000Y-129687000D01*
X120523000Y-129687000D01*
X120523000Y-129667000D01*
X119179845Y-129667000D01*
X119058524Y-129896890D01*
X119060446Y-129909261D01*
X119160146Y-130183009D01*
X119311336Y-130432046D01*
X119508205Y-130646802D01*
X119646424Y-130748105D01*
X119619627Y-130762428D01*
X119379497Y-130959497D01*
X119182428Y-131199627D01*
X119035993Y-131473588D01*
X118945818Y-131770854D01*
X118915370Y-132080000D01*
X118945818Y-132389146D01*
X119035993Y-132686412D01*
X119182428Y-132960373D01*
X119291272Y-133093000D01*
X118742504Y-133093000D01*
X116702797Y-131053294D01*
X116654976Y-130995024D01*
X116422460Y-130804203D01*
X116157185Y-130662410D01*
X115869344Y-130575095D01*
X115645011Y-130553000D01*
X115645001Y-130553000D01*
X115570000Y-130545613D01*
X115494999Y-130553000D01*
X96477784Y-130553000D01*
X96588664Y-130432046D01*
X96739854Y-130183009D01*
X96839554Y-129909261D01*
X96841476Y-129896890D01*
X96720155Y-129667000D01*
X95377000Y-129667000D01*
X95377000Y-129687000D01*
X95123000Y-129687000D01*
X95123000Y-129667000D01*
X93779845Y-129667000D01*
X93658524Y-129896890D01*
X93660446Y-129909261D01*
X93760146Y-130183009D01*
X93911336Y-130432046D01*
X94108205Y-130646802D01*
X94246424Y-130748105D01*
X94219627Y-130762428D01*
X93979497Y-130959497D01*
X93782428Y-131199627D01*
X93635993Y-131473588D01*
X93545818Y-131770854D01*
X93515370Y-132080000D01*
X93545818Y-132389146D01*
X93635993Y-132686412D01*
X93782428Y-132960373D01*
X93979497Y-133200503D01*
X94219627Y-133397572D01*
X94493588Y-133544007D01*
X94790854Y-133634182D01*
X95022531Y-133657000D01*
X95477469Y-133657000D01*
X95709146Y-133634182D01*
X95798753Y-133607000D01*
X114937497Y-133607000D01*
X116977208Y-135646712D01*
X117025024Y-135704976D01*
X117257540Y-135895797D01*
X117522815Y-136037590D01*
X117810656Y-136124905D01*
X118034989Y-136147000D01*
X118034998Y-136147000D01*
X118109999Y-136154387D01*
X118185000Y-136147000D01*
X121844999Y-136147000D01*
X121920000Y-136154387D01*
X121995001Y-136147000D01*
X121995011Y-136147000D01*
X122219344Y-136124905D01*
X122507185Y-136037590D01*
X122772460Y-135895797D01*
X123004976Y-135704976D01*
X123052797Y-135646706D01*
X133106713Y-125592791D01*
X133164976Y-125544976D01*
X133355797Y-125312460D01*
X133497590Y-125047185D01*
X133584905Y-124759344D01*
X133607000Y-124535011D01*
X133607000Y-124535004D01*
X133614387Y-124460000D01*
X133607000Y-124384996D01*
X133607000Y-107312503D01*
X136916718Y-104002787D01*
X136974976Y-103954976D01*
X137022788Y-103896717D01*
X137022793Y-103896712D01*
X137165796Y-103722461D01*
X137165798Y-103722459D01*
X137307590Y-103457185D01*
X137367518Y-103259627D01*
X137394905Y-103169345D01*
X137424388Y-102870000D01*
X137417000Y-102794989D01*
X137417000Y-100457000D01*
X144653000Y-100457000D01*
X144653000Y-101824653D01*
X137268822Y-109208832D01*
X137202918Y-109262918D01*
X136987104Y-109525889D01*
X136826740Y-109825909D01*
X136727988Y-110151450D01*
X136707517Y-110359301D01*
X136694644Y-110490000D01*
X136703000Y-110574838D01*
X136703001Y-127554652D01*
X129648822Y-134608832D01*
X129582918Y-134662918D01*
X129367104Y-134925889D01*
X129206740Y-135225909D01*
X129107988Y-135551450D01*
X129088158Y-135752792D01*
X129074644Y-135890000D01*
X129083000Y-135974839D01*
X129083001Y-138259900D01*
X129083000Y-138259905D01*
X129083000Y-138600095D01*
X129099634Y-138683718D01*
X129107989Y-138768551D01*
X129132735Y-138850127D01*
X129149368Y-138933747D01*
X129181995Y-139012515D01*
X129206741Y-139094092D01*
X129246927Y-139169274D01*
X129279553Y-139248041D01*
X129326919Y-139318929D01*
X129367105Y-139394112D01*
X129421186Y-139460010D01*
X129468552Y-139530898D01*
X129528837Y-139591183D01*
X129582919Y-139657082D01*
X129648818Y-139711164D01*
X129709102Y-139771448D01*
X129779989Y-139818813D01*
X129845889Y-139872896D01*
X129921074Y-139913083D01*
X129991959Y-139960447D01*
X130070722Y-139993072D01*
X130145909Y-140033260D01*
X130227491Y-140058008D01*
X130306253Y-140090632D01*
X130389867Y-140107264D01*
X130471450Y-140132012D01*
X130556291Y-140140368D01*
X130639905Y-140157000D01*
X130725159Y-140157000D01*
X130810000Y-140165356D01*
X130894841Y-140157000D01*
X130980095Y-140157000D01*
X131063708Y-140140368D01*
X131148551Y-140132012D01*
X131230136Y-140107263D01*
X131313747Y-140090632D01*
X131392506Y-140058009D01*
X131474092Y-140033260D01*
X131549282Y-139993070D01*
X131628041Y-139960447D01*
X131698922Y-139913086D01*
X131774112Y-139872896D01*
X131840017Y-139818809D01*
X131910898Y-139771448D01*
X131971178Y-139711168D01*
X132037082Y-139657082D01*
X132091168Y-139591178D01*
X132151448Y-139530898D01*
X132198809Y-139460017D01*
X132252896Y-139394112D01*
X132293086Y-139318922D01*
X132340447Y-139248041D01*
X132373070Y-139169282D01*
X132413260Y-139094092D01*
X132438009Y-139012506D01*
X132470632Y-138933747D01*
X132487263Y-138850136D01*
X132512012Y-138768551D01*
X132520368Y-138683708D01*
X132537000Y-138600095D01*
X132537000Y-136605346D01*
X139591183Y-129551164D01*
X139657082Y-129497082D01*
X139872896Y-129234112D01*
X140033260Y-128934092D01*
X140132012Y-128608551D01*
X140157000Y-128354841D01*
X140157000Y-128354832D01*
X140165355Y-128270001D01*
X140157000Y-128185170D01*
X140157000Y-111205346D01*
X144653000Y-106709347D01*
X144653000Y-140843000D01*
X121858238Y-140843000D01*
X122002203Y-140495437D01*
X122107000Y-139968586D01*
X122107000Y-139431414D01*
X122002203Y-138904563D01*
X121796636Y-138408281D01*
X121498199Y-137961639D01*
X121118361Y-137581801D01*
X120671719Y-137283364D01*
X120175437Y-137077797D01*
X119648586Y-136973000D01*
X119111414Y-136973000D01*
X118584563Y-137077797D01*
X118088281Y-137283364D01*
X117641639Y-137581801D01*
X117261801Y-137961639D01*
X116963364Y-138408281D01*
X116757797Y-138904563D01*
X116653000Y-139431414D01*
X116653000Y-139968586D01*
X116757797Y-140495437D01*
X116901762Y-140843000D01*
X98998238Y-140843000D01*
X99142203Y-140495437D01*
X99247000Y-139968586D01*
X99247000Y-139431414D01*
X99142203Y-138904563D01*
X98936636Y-138408281D01*
X98638199Y-137961639D01*
X98258361Y-137581801D01*
X97811719Y-137283364D01*
X97315437Y-137077797D01*
X96788586Y-136973000D01*
X96251414Y-136973000D01*
X95724563Y-137077797D01*
X95228281Y-137283364D01*
X94781639Y-137581801D01*
X94401801Y-137961639D01*
X94103364Y-138408281D01*
X93897797Y-138904563D01*
X93793000Y-139431414D01*
X93793000Y-139968586D01*
X93897797Y-140495437D01*
X94041762Y-140843000D01*
X91567000Y-140843000D01*
X91567000Y-90248490D01*
X96549980Y-87757000D01*
X102655000Y-87757000D01*
X102655000Y-87757002D01*
G36*
X125603000Y-100330000D02*
G01*
X125605440Y-100354776D01*
X125612667Y-100378601D01*
X125624403Y-100400557D01*
X125640197Y-100419803D01*
X125659443Y-100435597D01*
X125681399Y-100447333D01*
X125705224Y-100454560D01*
X125730000Y-100457000D01*
X127507497Y-100457000D01*
X128013000Y-100962504D01*
X128013001Y-102794980D01*
X128013000Y-102794990D01*
X128013001Y-105153000D01*
X127194128Y-105153000D01*
X127205812Y-105114482D01*
X127218072Y-104990000D01*
X127215000Y-104425750D01*
X127056250Y-104267000D01*
X125857000Y-104267000D01*
X125857000Y-104287000D01*
X125603000Y-104287000D01*
X125603000Y-104267000D01*
X124403750Y-104267000D01*
X124245000Y-104425750D01*
X124241928Y-104990000D01*
X124254188Y-105114482D01*
X124290498Y-105234180D01*
X124349463Y-105344494D01*
X124428815Y-105441185D01*
X124525506Y-105520537D01*
X124612662Y-105567123D01*
X124505064Y-105674721D01*
X124332481Y-105933011D01*
X124213604Y-106220006D01*
X124153000Y-106524679D01*
X124153000Y-106835321D01*
X124213604Y-107139994D01*
X124332481Y-107426989D01*
X124505064Y-107685279D01*
X124512785Y-107693000D01*
X122008728Y-107693000D01*
X122117572Y-107560373D01*
X122264007Y-107286412D01*
X122354182Y-106989146D01*
X122384630Y-106680000D01*
X122354182Y-106370854D01*
X122264007Y-106073588D01*
X122117572Y-105799627D01*
X121920503Y-105559497D01*
X121738340Y-105410000D01*
X121920503Y-105260503D01*
X122117572Y-105020373D01*
X122264007Y-104746412D01*
X122354182Y-104449146D01*
X122384630Y-104140000D01*
X122354182Y-103830854D01*
X122264007Y-103533588D01*
X122133807Y-103290000D01*
X124241928Y-103290000D01*
X124245000Y-103854250D01*
X124403750Y-104013000D01*
X125603000Y-104013000D01*
X125603000Y-102813750D01*
X125857000Y-102813750D01*
X125857000Y-104013000D01*
X127056250Y-104013000D01*
X127215000Y-103854250D01*
X127218072Y-103290000D01*
X127205812Y-103165518D01*
X127169502Y-103045820D01*
X127110537Y-102935506D01*
X127031185Y-102838815D01*
X126934494Y-102759463D01*
X126824180Y-102700498D01*
X126704482Y-102664188D01*
X126580000Y-102651928D01*
X126015750Y-102655000D01*
X125857000Y-102813750D01*
X125603000Y-102813750D01*
X125444250Y-102655000D01*
X124880000Y-102651928D01*
X124755518Y-102664188D01*
X124635820Y-102700498D01*
X124525506Y-102759463D01*
X124428815Y-102838815D01*
X124349463Y-102935506D01*
X124290498Y-103045820D01*
X124254188Y-103165518D01*
X124241928Y-103290000D01*
X122133807Y-103290000D01*
X122117572Y-103259627D01*
X121920503Y-103019497D01*
X121738340Y-102870000D01*
X121920503Y-102720503D01*
X122117572Y-102480373D01*
X122264007Y-102206412D01*
X122354182Y-101909146D01*
X122384630Y-101600000D01*
X122354182Y-101290854D01*
X122264007Y-100993588D01*
X122117572Y-100719627D01*
X121920503Y-100479497D01*
X121738340Y-100330000D01*
X121920503Y-100180503D01*
X122117572Y-99940373D01*
X122264007Y-99666412D01*
X122354182Y-99369146D01*
X122384630Y-99060000D01*
X122354182Y-98750854D01*
X122264007Y-98453588D01*
X122117572Y-98179627D01*
X121920503Y-97939497D01*
X121738340Y-97790000D01*
X121920503Y-97640503D01*
X122117572Y-97400373D01*
X122264007Y-97126412D01*
X122354182Y-96829146D01*
X122384630Y-96520000D01*
X122354182Y-96210854D01*
X122264007Y-95913588D01*
X122117572Y-95639627D01*
X121920503Y-95399497D01*
X121680373Y-95202428D01*
X121406412Y-95055993D01*
X121109146Y-94965818D01*
X120877469Y-94943000D01*
X120422531Y-94943000D01*
X120279581Y-94957079D01*
X121129661Y-94107000D01*
X125603000Y-94107000D01*
X125603000Y-100330000D01*
G37*
X125603000Y-100330000D02*
X125605440Y-100354776D01*
X125612667Y-100378601D01*
X125624403Y-100400557D01*
X125640197Y-100419803D01*
X125659443Y-100435597D01*
X125681399Y-100447333D01*
X125705224Y-100454560D01*
X125730000Y-100457000D01*
X127507497Y-100457000D01*
X128013000Y-100962504D01*
X128013001Y-102794980D01*
X128013000Y-102794990D01*
X128013001Y-105153000D01*
X127194128Y-105153000D01*
X127205812Y-105114482D01*
X127218072Y-104990000D01*
X127215000Y-104425750D01*
X127056250Y-104267000D01*
X125857000Y-104267000D01*
X125857000Y-104287000D01*
X125603000Y-104287000D01*
X125603000Y-104267000D01*
X124403750Y-104267000D01*
X124245000Y-104425750D01*
X124241928Y-104990000D01*
X124254188Y-105114482D01*
X124290498Y-105234180D01*
X124349463Y-105344494D01*
X124428815Y-105441185D01*
X124525506Y-105520537D01*
X124612662Y-105567123D01*
X124505064Y-105674721D01*
X124332481Y-105933011D01*
X124213604Y-106220006D01*
X124153000Y-106524679D01*
X124153000Y-106835321D01*
X124213604Y-107139994D01*
X124332481Y-107426989D01*
X124505064Y-107685279D01*
X124512785Y-107693000D01*
X122008728Y-107693000D01*
X122117572Y-107560373D01*
X122264007Y-107286412D01*
X122354182Y-106989146D01*
X122384630Y-106680000D01*
X122354182Y-106370854D01*
X122264007Y-106073588D01*
X122117572Y-105799627D01*
X121920503Y-105559497D01*
X121738340Y-105410000D01*
X121920503Y-105260503D01*
X122117572Y-105020373D01*
X122264007Y-104746412D01*
X122354182Y-104449146D01*
X122384630Y-104140000D01*
X122354182Y-103830854D01*
X122264007Y-103533588D01*
X122133807Y-103290000D01*
X124241928Y-103290000D01*
X124245000Y-103854250D01*
X124403750Y-104013000D01*
X125603000Y-104013000D01*
X125603000Y-102813750D01*
X125857000Y-102813750D01*
X125857000Y-104013000D01*
X127056250Y-104013000D01*
X127215000Y-103854250D01*
X127218072Y-103290000D01*
X127205812Y-103165518D01*
X127169502Y-103045820D01*
X127110537Y-102935506D01*
X127031185Y-102838815D01*
X126934494Y-102759463D01*
X126824180Y-102700498D01*
X126704482Y-102664188D01*
X126580000Y-102651928D01*
X126015750Y-102655000D01*
X125857000Y-102813750D01*
X125603000Y-102813750D01*
X125444250Y-102655000D01*
X124880000Y-102651928D01*
X124755518Y-102664188D01*
X124635820Y-102700498D01*
X124525506Y-102759463D01*
X124428815Y-102838815D01*
X124349463Y-102935506D01*
X124290498Y-103045820D01*
X124254188Y-103165518D01*
X124241928Y-103290000D01*
X122133807Y-103290000D01*
X122117572Y-103259627D01*
X121920503Y-103019497D01*
X121738340Y-102870000D01*
X121920503Y-102720503D01*
X122117572Y-102480373D01*
X122264007Y-102206412D01*
X122354182Y-101909146D01*
X122384630Y-101600000D01*
X122354182Y-101290854D01*
X122264007Y-100993588D01*
X122117572Y-100719627D01*
X121920503Y-100479497D01*
X121738340Y-100330000D01*
X121920503Y-100180503D01*
X122117572Y-99940373D01*
X122264007Y-99666412D01*
X122354182Y-99369146D01*
X122384630Y-99060000D01*
X122354182Y-98750854D01*
X122264007Y-98453588D01*
X122117572Y-98179627D01*
X121920503Y-97939497D01*
X121738340Y-97790000D01*
X121920503Y-97640503D01*
X122117572Y-97400373D01*
X122264007Y-97126412D01*
X122354182Y-96829146D01*
X122384630Y-96520000D01*
X122354182Y-96210854D01*
X122264007Y-95913588D01*
X122117572Y-95639627D01*
X121920503Y-95399497D01*
X121680373Y-95202428D01*
X121406412Y-95055993D01*
X121109146Y-94965818D01*
X120877469Y-94943000D01*
X120422531Y-94943000D01*
X120279581Y-94957079D01*
X121129661Y-94107000D01*
X125603000Y-94107000D01*
X125603000Y-100330000D01*
M02*
