M48
; DRILL file {KiCad (5.1.5)-3} date 08/04/2020 18:39:49
; FORMAT={-:-/ absolute / inch / decimal}
; #@! TF.CreationDate,2020-04-08T18:39:49+02:00
; #@! TF.GenerationSoftware,Kicad,Pcbnew,(5.1.5)-3
; #@! TF.FileFunction,Plated,1,2,PTH
FMAT,2
INCH
T1C0.0354
T2C0.0394
T3C0.0512
T4C0.0787
%
G90
G05
T1
X3.75Y-3.8
X3.75Y-3.9
X3.75Y-4.0
X3.75Y-4.1
X3.75Y-4.2
X3.75Y-4.3
X3.75Y-4.4
X3.75Y-4.5
X3.75Y-4.6
X3.75Y-4.7
X3.75Y-4.8
X3.75Y-4.9
X3.75Y-5.0
X3.75Y-5.1
X3.75Y-5.2
X4.75Y-3.9
X4.75Y-4.0
X4.75Y-4.1
X4.75Y-4.2
X4.75Y-4.3
X4.75Y-4.4
X4.75Y-4.5
X4.75Y-4.6
X4.75Y-4.7
X4.75Y-4.8
X4.75Y-4.9
X4.75Y-5.0
X4.75Y-5.1
X4.75Y-5.2
T2
X4.9Y-3.55
X5.0Y-3.55
X5.1Y-3.55
X5.2Y-3.55
X4.1Y-3.45
X4.2Y-3.45
X4.3Y-3.45
X4.4Y-3.45
X4.5Y-3.45
X4.95Y-4.1
X4.95Y-4.2
X4.95Y-4.3
X4.95Y-4.5
X4.95Y-4.6
X4.95Y-4.7
X4.95Y-4.8
X5.15Y-3.85
X5.15Y-5.45
X5.85Y-3.85
X5.85Y-5.45
X4.75Y-3.8
T3
X6.2Y-4.0016
X6.2Y-4.1984
T4
X3.8Y-5.5
X4.7Y-5.5
X6.05Y-5.25
T0
M30
